<svg xmlns="http://www.w3.org/2000/svg"  viewBox="0 0 512 512" width="85px" height="85px"><path fill="#fcaccb" d="M314.71,294.84,232.78,437.66a42.62,42.62,0,0,1-37,21.4H171.26l60.79-164.22Z"/><polygon fill="#e87ea9" points="219.8 327.91 295.74 327.91 314.71 294.84 232.05 294.84 219.8 327.91"/><path fill="#e87ea9" d="M317.75,228.46,237.53,108.23a42.6,42.6,0,0,0-37-21.4H176l59.06,141.63Z"/><path fill="#e87ea9" d="M108,268.67,34.05,177.93H61a48.34,48.34,0,0,1,31.84,12l89.89,78.69Z"/><path fill="#fff" d="M75.23,228.46H387a87.12,87.12,0,0,1,59.27,23.46l26.57,24.67c10.37,9.61,3.78,27.35-10.16,27.35H169.37a69.19,69.19,0,0,1-53.64-25.78Z"/><path fill="#9ddbf4" d="M446.31,251.92A87.12,87.12,0,0,0,387,228.46H375.27l21.57,21.93a32.91,32.91,0,0,0,23.46,9.83h34.95Z"/><path fill="#ff8d8d" d="M429.43,63.33c-4.62-8.53-14-12.24-22.6-9.46-7.92,2.56-19,8-24.45,19.16-5.49-11.15-16.53-16.6-24.45-19.16-8.56-2.78-18,.93-22.6,9.46-6.27,11.6-.18,25-.18,25,8.86,19,24.52,31.17,35.37,37.8l-7,37.46,50.57-53.15a80.57,80.57,0,0,0,15.53-22.11S435.7,74.93,429.43,63.33Z"/><circle cx="327.85" cy="266.2" r="11.9" fill="#9ddbf4"/><circle cx="285" cy="266.2" r="11.9" fill="#9ddbf4"/><circle cx="242.14" cy="266.2" r="11.9" fill="#9ddbf4"/><circle cx="198.05" cy="266.2" r="11.9" fill="#9ddbf4"/><path fill="#e06c6c" d="M414.08,110.43a80.57,80.57,0,0,0,15.53-22.11s6.09-13.39-.18-25a19.83,19.83,0,0,0-8.14-8.17,72.14,72.14,0,0,1-21,45l-12.47,12.48A9.66,9.66,0,0,1,378,115a183,183,0,0,1-37.55-17.31c9,13.69,21.16,23,30.1,28.41l-7,37.46Z"/><circle cx="353.99" cy="77.3" r="7.28" fill="#fff"/><path fill="#e6e6e6" d="M477.83,290.06H177.4a64.88,64.88,0,0,1-49.31-22.7l-5.23-6.11A48.28,48.28,0,0,0,88.21,244.4l27.52,33.76a69.19,69.19,0,0,0,53.64,25.78H462.72C471.2,303.94,477,297.37,477.83,290.06Z"/><path fill="#4d4d4d" d="M450.09,247.85a92.48,92.48,0,0,0-63-24.95H320.72L242.25,105.3a48.26,48.26,0,0,0-41.68-24H176a5.56,5.56,0,0,0-5.13,7.7l50.47,121a5.56,5.56,0,1,0,10.26-4.28L184.36,92.39h16.21A37.14,37.14,0,0,1,232.71,111a3.45,3.45,0,0,0,.2.32L307.36,222.9H77.87L45.75,183.48H61A42.82,42.82,0,0,1,89.2,194.17l25.87,22.65a5.56,5.56,0,1,0,7.32-8.37L96.52,185.8A53.93,53.93,0,0,0,61,172.37h-27a5.56,5.56,0,0,0-4.31,9.07L70.92,232h0l40.5,49.7a74.6,74.6,0,0,0,58,27.83H299.89L228,434.89a37.15,37.15,0,0,1-32.14,18.61H179.25L226.6,325.56a5.56,5.56,0,1,0-10.42-3.86L166.05,457.13a5.56,5.56,0,0,0,5.21,7.49h24.56a48.28,48.28,0,0,0,41.78-24.2L312.7,309.5h150A20.41,20.41,0,0,0,482,296.19a21.44,21.44,0,0,0-5.31-23.68Zm21.54,44.28a9.51,9.51,0,0,1-8.91,6.26H169.37A63.54,63.54,0,0,1,120,274.65L86.92,234H387a81.37,81.37,0,0,1,54,20.64H420.3a27.46,27.46,0,0,1-19.49-8.17l-2.72-2.76a5.56,5.56,0,0,0-7.92,7.8l2.71,2.76a38.71,38.71,0,0,0,27.42,11.49h32.77l16,14.88A10.26,10.26,0,0,1,471.63,292.13Z"/><path fill="#4d4d4d" d="M331.92,74.9a5.81,5.81,0,0,0,1.17.12,5.56,5.56,0,0,0,5.43-4.39c.09-.43.2-.85.32-1.28a5.56,5.56,0,1,0-10.67-3.11c-.2.68-.37,1.37-.52,2.06A5.56,5.56,0,0,0,331.92,74.9Z"/><path fill="#4d4d4d" d="M373.42,121.38c-10.66-6.51-25.07-17.95-33.23-35.41a5.56,5.56,0,1,0-10.07,4.7c8.51,18.21,22.74,30.55,34.24,38.13l-6.31,33.76a5.56,5.56,0,0,0,9.49,4.85l50.51-53.09a86.18,86.18,0,0,0,16.62-23.7c.29-.65,7.15-16.06-.36-29.94-5.84-10.8-17.85-15.77-29.19-12.1C398,50.89,389,55.17,382.38,63c-6.61-7.81-15.61-12.09-22.74-14.4A24.19,24.19,0,0,0,347,48a5.56,5.56,0,1,0,2.39,10.86,13,13,0,0,1,6.78.33c7.14,2.32,16.6,7,21.18,16.34a5.57,5.57,0,0,0,10,0c4.58-9.31,14-14,21.17-16.34,6.16-2,12.74.81,16,6.82,4.84,9,0,20,0,20a75,75,0,0,1-14.52,20.63l-37.62,39.55,3.55-19A5.55,5.55,0,0,0,373.42,121.38Z"/><path fill="#4d4d4d" d="M340.75,187.79a5.38,5.38,0,0,0-1,.3,6.39,6.39,0,0,0-1,.52,4.61,4.61,0,0,0-.83.69,5.52,5.52,0,0,0,0,7.85,4.66,4.66,0,0,0,.83.7,6.33,6.33,0,0,0,1,.51,5.44,5.44,0,0,0,1,.32,5.65,5.65,0,0,0,1.08.11,5.55,5.55,0,1,0-1.08-11Z"/><path fill="#4d4d4d" d="M327.85,248.74a17.46,17.46,0,1,0,17.46,17.46A17.48,17.48,0,0,0,327.85,248.74Zm0,23.81a6.35,6.35,0,1,1,6.35-6.35A6.36,6.36,0,0,1,327.85,272.55Z"/><path fill="#4d4d4d" d="M285,248.74a17.46,17.46,0,1,0,17.46,17.46A17.49,17.49,0,0,0,285,248.74Zm0,23.81a6.35,6.35,0,1,1,6.34-6.35A6.36,6.36,0,0,1,285,272.55Z"/><path fill="#4d4d4d" d="M242.14,248.74A17.46,17.46,0,1,0,259.6,266.2,17.48,17.48,0,0,0,242.14,248.74Zm0,23.81a6.35,6.35,0,1,1,6.35-6.35A6.35,6.35,0,0,1,242.14,272.55Z"/><path fill="#4d4d4d" d="M198.05,248.74a17.46,17.46,0,1,0,17.46,17.46A17.48,17.48,0,0,0,198.05,248.74Zm0,23.81a6.35,6.35,0,1,1,6.34-6.35A6.36,6.36,0,0,1,198.05,272.55Z"/></svg>